<svg width="412" height="60" viewBox="0 0 412 60" fill="none" xmlns="http://www.w3.org/2000/svg">
<path d="M9.33949 11.4531C9.2732 10.8329 8.99384 10.3499 8.50142 10.0043C8.01373 9.65862 7.37926 9.4858 6.59801 9.4858C6.04877 9.4858 5.57765 9.56866 5.18466 9.73438C4.79167 9.90009 4.491 10.125 4.28267 10.4091C4.07434 10.6932 3.9678 11.0175 3.96307 11.3821C3.96307 11.6851 4.03172 11.9479 4.16903 12.1705C4.31108 12.393 4.50284 12.5824 4.74432 12.7386C4.9858 12.8902 5.25331 13.018 5.54688 13.1222C5.84044 13.2263 6.13636 13.3139 6.43466 13.3849L7.7983 13.7259C8.34754 13.8537 8.87547 14.0265 9.3821 14.2443C9.89347 14.4621 10.3504 14.7367 10.7528 15.0682C11.16 15.3996 11.482 15.7997 11.7188 16.2685C11.9555 16.7372 12.0739 17.2865 12.0739 17.9162C12.0739 18.7685 11.8561 19.5189 11.4205 20.1676C10.9848 20.8116 10.3551 21.3158 9.53125 21.6804C8.71212 22.0402 7.72017 22.2202 6.5554 22.2202C5.42377 22.2202 4.44129 22.045 3.60795 21.6946C2.77936 21.3442 2.13068 20.8329 1.66193 20.1605C1.19792 19.4882 0.94697 18.669 0.909091 17.7031H3.50142C3.5393 18.2098 3.69555 18.6312 3.97017 18.9673C4.24479 19.3035 4.60227 19.5545 5.04261 19.7202C5.48769 19.8859 5.98485 19.9688 6.53409 19.9688C7.10701 19.9688 7.6089 19.8835 8.03977 19.7131C8.47538 19.5379 8.81629 19.2964 9.0625 18.9886C9.30871 18.6761 9.43419 18.3116 9.43892 17.8949C9.43419 17.5161 9.32292 17.2036 9.10511 16.9574C8.88731 16.7064 8.58191 16.4981 8.18892 16.3324C7.80066 16.1619 7.34612 16.0104 6.82528 15.8778L5.17045 15.4517C3.97254 15.1439 3.02557 14.6776 2.32955 14.0526C1.63826 13.4228 1.29261 12.5871 1.29261 11.5455C1.29261 10.6884 1.52462 9.93797 1.98864 9.29403C2.45739 8.65009 3.09422 8.15057 3.89915 7.79545C4.70407 7.43561 5.61553 7.25568 6.63352 7.25568C7.66572 7.25568 8.57008 7.43561 9.34659 7.79545C10.1278 8.15057 10.741 8.64536 11.1861 9.27983C11.6312 9.90956 11.8608 10.634 11.875 11.4531H9.33949ZM17.4485 22.2202C16.7572 22.2202 16.1346 22.0971 15.5806 21.8509C15.0314 21.5999 14.5958 21.2306 14.2738 20.7429C13.9566 20.2552 13.7979 19.6539 13.7979 18.9389C13.7979 18.3234 13.9116 17.8144 14.1388 17.4119C14.3661 17.0095 14.6763 16.6875 15.0692 16.446C15.4622 16.2045 15.9049 16.0223 16.3974 15.8991C16.8945 15.7713 17.4083 15.679 17.9386 15.6222C18.5778 15.5559 19.0962 15.4967 19.494 15.4446C19.8917 15.3878 20.1805 15.3026 20.3604 15.1889C20.5451 15.0705 20.6374 14.8883 20.6374 14.642V14.5994C20.6374 14.0644 20.4788 13.6501 20.1616 13.3565C19.8443 13.063 19.3874 12.9162 18.7908 12.9162C18.1611 12.9162 17.6616 13.0535 17.2923 13.3281C16.9277 13.6027 16.6815 13.9271 16.5536 14.3011L14.1531 13.9602C14.3424 13.2973 14.6549 12.7434 15.0906 12.2983C15.5262 11.8485 16.0588 11.5123 16.6886 11.2898C17.3183 11.0625 18.0143 10.9489 18.7766 10.9489C19.3022 10.9489 19.8254 11.0104 20.3462 11.1335C20.8671 11.2566 21.3429 11.4602 21.7738 11.7443C22.2047 12.0237 22.5503 12.4048 22.8107 12.8878C23.0759 13.3707 23.2085 13.9744 23.2085 14.6989V22H20.7369V20.5014H20.6516C20.4954 20.8045 20.2752 21.0885 19.9911 21.3537C19.7118 21.6141 19.359 21.8248 18.9329 21.9858C18.5115 22.142 18.0167 22.2202 17.4485 22.2202ZM18.1161 20.331C18.6322 20.331 19.0797 20.2292 19.4585 20.0256C19.8372 19.8172 20.1284 19.5426 20.332 19.2017C20.5404 18.8608 20.6445 18.4891 20.6445 18.0866V16.8011C20.564 16.8674 20.4267 16.929 20.2326 16.9858C20.0432 17.0426 19.8301 17.0923 19.5934 17.1349C19.3567 17.1776 19.1223 17.2154 18.8903 17.2486C18.6583 17.2817 18.457 17.3101 18.2866 17.3338C17.9031 17.3859 17.5598 17.4711 17.2567 17.5895C16.9537 17.7079 16.7146 17.8736 16.5394 18.0866C16.3642 18.295 16.2766 18.5649 16.2766 18.8963C16.2766 19.3698 16.4495 19.7273 16.7951 19.9688C17.1407 20.2102 17.5811 20.331 18.1161 20.331ZM25.7937 22V11.0909H28.2866V12.9091H28.4002C28.5991 12.2794 28.94 11.794 29.4229 11.4531C29.9106 11.1075 30.467 10.9347 31.092 10.9347C31.234 10.9347 31.3926 10.9418 31.5678 10.956C31.7478 10.9654 31.8969 10.982 32.0153 11.0057V13.3707C31.9064 13.3329 31.7335 13.2997 31.4968 13.2713C31.2648 13.2382 31.0399 13.2216 30.8221 13.2216C30.3533 13.2216 29.9319 13.3234 29.5579 13.527C29.1886 13.7259 28.8974 14.0028 28.6843 14.358C28.4712 14.7131 28.3647 15.1226 28.3647 15.5866V22H25.7937ZM36.6673 22.2202C35.976 22.2202 35.3533 22.0971 34.7994 21.8509C34.2501 21.5999 33.8145 21.2306 33.4925 20.7429C33.1753 20.2552 33.0167 19.6539 33.0167 18.9389C33.0167 18.3234 33.1303 17.8144 33.3576 17.4119C33.5849 17.0095 33.895 16.6875 34.288 16.446C34.681 16.2045 35.1237 16.0223 35.6161 15.8991C36.1133 15.7713 36.627 15.679 37.1573 15.6222C37.7965 15.5559 38.315 15.4967 38.7127 15.4446C39.1104 15.3878 39.3993 15.3026 39.5792 15.1889C39.7638 15.0705 39.8562 14.8883 39.8562 14.642V14.5994C39.8562 14.0644 39.6976 13.6501 39.3803 13.3565C39.0631 13.063 38.6062 12.9162 38.0096 12.9162C37.3799 12.9162 36.8803 13.0535 36.511 13.3281C36.1464 13.6027 35.9002 13.9271 35.7724 14.3011L33.3718 13.9602C33.5612 13.2973 33.8737 12.7434 34.3093 12.2983C34.7449 11.8485 35.2776 11.5123 35.9073 11.2898C36.5371 11.0625 37.2331 10.9489 37.9954 10.9489C38.521 10.9489 39.0442 11.0104 39.565 11.1335C40.0858 11.2566 40.5617 11.4602 40.9925 11.7443C41.4234 12.0237 41.7691 12.4048 42.0295 12.8878C42.2946 13.3707 42.4272 13.9744 42.4272 14.6989V22H39.9556V20.5014H39.8704C39.7141 20.8045 39.494 21.0885 39.2099 21.3537C38.9305 21.6141 38.5778 21.8248 38.1516 21.9858C37.7302 22.142 37.2354 22.2202 36.6673 22.2202ZM37.3349 20.331C37.851 20.331 38.2984 20.2292 38.6772 20.0256C39.056 19.8172 39.3472 19.5426 39.5508 19.2017C39.7591 18.8608 39.8633 18.4891 39.8633 18.0866V16.8011C39.7828 16.8674 39.6455 16.929 39.4513 16.9858C39.262 17.0426 39.0489 17.0923 38.8121 17.1349C38.5754 17.1776 38.341 17.2154 38.109 17.2486C37.877 17.2817 37.6758 17.3101 37.5053 17.3338C37.1218 17.3859 36.7785 17.4711 36.4755 17.5895C36.1725 17.7079 35.9334 17.8736 35.7582 18.0866C35.583 18.295 35.4954 18.5649 35.4954 18.8963C35.4954 19.3698 35.6682 19.7273 36.0138 19.9688C36.3595 20.2102 36.7998 20.331 37.3349 20.331ZM47.5835 15.608V22H45.0124V7.45455H47.5266V12.9446H47.6545C47.9102 12.3291 48.3055 11.8437 48.8406 11.4886C49.3803 11.1288 50.0669 10.9489 50.9002 10.9489C51.6578 10.9489 52.3183 11.1075 52.8817 11.4247C53.4452 11.742 53.8808 12.206 54.1886 12.8168C54.5011 13.4276 54.6573 14.1733 54.6573 15.054V22H52.0863V15.4517C52.0863 14.7178 51.8969 14.1473 51.5181 13.7401C51.1441 13.3281 50.6185 13.1222 49.9414 13.1222C49.4869 13.1222 49.0797 13.2216 48.7198 13.4205C48.3647 13.6146 48.0853 13.8963 47.8817 14.2656C47.6829 14.6349 47.5835 15.0824 47.5835 15.608ZM61.7134 9.66335V7.45455H73.3185V9.66335H68.8228V22H66.2092V9.66335H61.7134ZM78.0131 15.608V22H75.4421V7.45455H77.9563V12.9446H78.0842C78.3398 12.3291 78.7352 11.8437 79.2702 11.4886C79.81 11.1288 80.4966 10.9489 81.3299 10.9489C82.0875 10.9489 82.748 11.1075 83.3114 11.4247C83.8749 11.742 84.3105 12.206 84.6183 12.8168C84.9308 13.4276 85.087 14.1733 85.087 15.054V22H82.516V15.4517C82.516 14.7178 82.3266 14.1473 81.9478 13.7401C81.5737 13.3281 81.0482 13.1222 80.3711 13.1222C79.9165 13.1222 79.5094 13.2216 79.1495 13.4205C78.7944 13.6146 78.515 13.8963 78.3114 14.2656C78.1126 14.6349 78.0131 15.0824 78.0131 15.608ZM92.4663 22.2131C91.4009 22.2131 90.4776 21.9787 89.6964 21.5099C88.9151 21.0412 88.3091 20.3854 87.8782 19.5426C87.4521 18.6998 87.239 17.715 87.239 16.5881C87.239 15.4612 87.4521 14.474 87.8782 13.6264C88.3091 12.7789 88.9151 12.1207 89.6964 11.652C90.4776 11.1832 91.4009 10.9489 92.4663 10.9489C93.5316 10.9489 94.4549 11.1832 95.2362 11.652C96.0174 12.1207 96.6211 12.7789 97.0472 13.6264C97.4781 14.474 97.6935 15.4612 97.6935 16.5881C97.6935 17.715 97.4781 18.6998 97.0472 19.5426C96.6211 20.3854 96.0174 21.0412 95.2362 21.5099C94.4549 21.9787 93.5316 22.2131 92.4663 22.2131ZM92.4805 20.1534C93.0581 20.1534 93.5411 19.9948 93.9293 19.6776C94.3176 19.3556 94.6064 18.9247 94.7958 18.3849C94.9899 17.8452 95.087 17.2438 95.087 16.581C95.087 15.9134 94.9899 15.3097 94.7958 14.7699C94.6064 14.2254 94.3176 13.7921 93.9293 13.4702C93.5411 13.1482 93.0581 12.9872 92.4805 12.9872C91.8886 12.9872 91.3962 13.1482 91.0032 13.4702C90.6149 13.7921 90.3237 14.2254 90.1296 14.7699C89.9402 15.3097 89.8455 15.9134 89.8455 16.581C89.8455 17.2438 89.9402 17.8452 90.1296 18.3849C90.3237 18.9247 90.6149 19.3556 91.0032 19.6776C91.3962 19.9948 91.8886 20.1534 92.4805 20.1534ZM99.8757 22V11.0909H102.333V12.9446H102.461C102.688 12.3196 103.065 11.8319 103.59 11.4815C104.116 11.1264 104.743 10.9489 105.472 10.9489C106.211 10.9489 106.834 11.1288 107.34 11.4886C107.852 11.8437 108.211 12.3291 108.42 12.9446H108.533C108.775 12.3385 109.182 11.8556 109.755 11.4957C110.333 11.1312 111.017 10.9489 111.808 10.9489C112.811 10.9489 113.63 11.2661 114.265 11.9006C114.899 12.535 115.217 13.4607 115.217 14.6776V22H112.638V15.0753C112.638 14.3982 112.459 13.9034 112.099 13.5909C111.739 13.2737 111.299 13.1151 110.778 13.1151C110.157 13.1151 109.672 13.3092 109.322 13.6974C108.976 14.081 108.803 14.5805 108.803 15.196V22H106.282V14.9688C106.282 14.4053 106.112 13.9555 105.771 13.6193C105.434 13.2831 104.994 13.1151 104.45 13.1151C104.08 13.1151 103.744 13.2098 103.441 13.3991C103.138 13.5838 102.897 13.8466 102.717 14.1875C102.537 14.5237 102.447 14.9167 102.447 15.3665V22H99.8757ZM117.825 26.0909V11.0909H120.353V12.8949H120.502C120.635 12.6297 120.822 12.348 121.064 12.0497C121.305 11.7467 121.632 11.4886 122.044 11.2756C122.456 11.0578 122.981 10.9489 123.62 10.9489C124.463 10.9489 125.223 11.1643 125.9 11.5952C126.582 12.0213 127.122 12.6534 127.52 13.4915C127.922 14.3248 128.123 15.3475 128.123 16.5597C128.123 17.7576 127.927 18.7756 127.534 19.6136C127.141 20.4517 126.606 21.0909 125.929 21.5312C125.252 21.9716 124.484 22.1918 123.627 22.1918C123.002 22.1918 122.484 22.0876 122.072 21.8793C121.66 21.6709 121.329 21.42 121.078 21.1264C120.832 20.8281 120.64 20.5464 120.502 20.2812H120.396V26.0909H117.825ZM120.346 16.5455C120.346 17.2509 120.446 17.8688 120.645 18.3991C120.848 18.9295 121.139 19.3437 121.518 19.642C121.902 19.9356 122.366 20.0824 122.91 20.0824C123.478 20.0824 123.954 19.9309 124.338 19.6278C124.721 19.3201 125.01 18.901 125.204 18.3707C125.403 17.8357 125.502 17.2273 125.502 16.5455C125.502 15.8684 125.405 15.267 125.211 14.7415C125.017 14.2159 124.728 13.804 124.345 13.5057C123.961 13.2074 123.483 13.0582 122.91 13.0582C122.361 13.0582 121.895 13.2027 121.511 13.4915C121.127 13.7803 120.836 14.1851 120.637 14.706C120.443 15.2268 120.346 15.84 120.346 16.5455ZM138.947 13.9744L136.603 14.2301C136.537 13.9934 136.421 13.7708 136.255 13.5625C136.094 13.3542 135.877 13.1861 135.602 13.0582C135.327 12.9304 134.991 12.8665 134.593 12.8665C134.058 12.8665 133.609 12.9825 133.244 13.2145C132.884 13.4465 132.707 13.7472 132.711 14.1165C132.707 14.4337 132.823 14.6918 133.059 14.8906C133.301 15.0895 133.699 15.2528 134.252 15.3807L136.113 15.7784C137.145 16.0009 137.913 16.3537 138.414 16.8366C138.921 17.3196 139.177 17.9517 139.181 18.733C139.177 19.4195 138.975 20.0256 138.578 20.5511C138.185 21.072 137.638 21.4792 136.937 21.7727C136.236 22.0663 135.431 22.2131 134.522 22.2131C133.187 22.2131 132.112 21.9337 131.298 21.375C130.484 20.8116 129.998 20.0279 129.842 19.0241L132.349 18.7827C132.463 19.2751 132.704 19.6468 133.074 19.8977C133.443 20.1487 133.923 20.2741 134.515 20.2741C135.126 20.2741 135.616 20.1487 135.985 19.8977C136.359 19.6468 136.547 19.3366 136.547 18.9673C136.547 18.6548 136.426 18.3968 136.184 18.1932C135.948 17.9896 135.578 17.8333 135.076 17.7244L133.216 17.3338C132.169 17.116 131.395 16.7491 130.893 16.233C130.391 15.7121 130.143 15.054 130.147 14.2585C130.143 13.5862 130.325 13.0038 130.694 12.5114C131.068 12.0142 131.587 11.6307 132.25 11.3608C132.917 11.0862 133.687 10.9489 134.558 10.9489C135.836 10.9489 136.842 11.2211 137.576 11.7656C138.315 12.3101 138.772 13.0464 138.947 13.9744ZM146.06 22.2131C144.995 22.2131 144.071 21.9787 143.29 21.5099C142.509 21.0412 141.903 20.3854 141.472 19.5426C141.046 18.6998 140.833 17.715 140.833 16.5881C140.833 15.4612 141.046 14.474 141.472 13.6264C141.903 12.7789 142.509 12.1207 143.29 11.652C144.071 11.1832 144.995 10.9489 146.06 10.9489C147.125 10.9489 148.049 11.1832 148.83 11.652C149.611 12.1207 150.215 12.7789 150.641 13.6264C151.072 14.474 151.287 15.4612 151.287 16.5881C151.287 17.715 151.072 18.6998 150.641 19.5426C150.215 20.3854 149.611 21.0412 148.83 21.5099C148.049 21.9787 147.125 22.2131 146.06 22.2131ZM146.074 20.1534C146.652 20.1534 147.135 19.9948 147.523 19.6776C147.911 19.3556 148.2 18.9247 148.39 18.3849C148.584 17.8452 148.681 17.2438 148.681 16.581C148.681 15.9134 148.584 15.3097 148.39 14.7699C148.2 14.2254 147.911 13.7921 147.523 13.4702C147.135 13.1482 146.652 12.9872 146.074 12.9872C145.482 12.9872 144.99 13.1482 144.597 13.4702C144.209 13.7921 143.917 14.2254 143.723 14.7699C143.534 15.3097 143.439 15.9134 143.439 16.581C143.439 17.2438 143.534 17.8452 143.723 18.3849C143.917 18.9247 144.209 19.3556 144.597 19.6776C144.99 19.9948 145.482 20.1534 146.074 20.1534ZM156.04 15.608V22H153.469V11.0909H155.927V12.9446H156.055C156.306 12.3338 156.706 11.8485 157.255 11.4886C157.809 11.1288 158.493 10.9489 159.308 10.9489C160.06 10.9489 160.716 11.1098 161.275 11.4318C161.838 11.7538 162.274 12.2202 162.582 12.831C162.894 13.4418 163.048 14.1828 163.043 15.054V22H160.472V15.4517C160.472 14.7225 160.283 14.152 159.904 13.7401C159.53 13.3281 159.012 13.1222 158.349 13.1222C157.899 13.1222 157.499 13.2216 157.148 13.4205C156.803 13.6146 156.531 13.8963 156.332 14.2656C156.138 14.6349 156.04 15.0824 156.04 15.608Z" fill="#101828"/>
<path d="M1.58523 53V39.9091H6.00852C7.03551 39.9091 7.875 40.0945 8.52699 40.4652C9.18324 40.8317 9.66903 41.3281 9.98438 41.9545C10.2997 42.581 10.4574 43.2798 10.4574 44.0511C10.4574 44.8224 10.2997 45.5234 9.98438 46.1541C9.6733 46.7848 9.19176 47.2876 8.53977 47.6626C7.88778 48.0334 7.05256 48.2188 6.03409 48.2188H2.86364V46.8125H5.98295C6.68608 46.8125 7.25071 46.6911 7.67685 46.4482C8.10298 46.2053 8.41193 45.8771 8.60369 45.4638C8.79972 45.0462 8.89773 44.5753 8.89773 44.0511C8.89773 43.527 8.79972 43.0582 8.60369 42.6449C8.41193 42.2315 8.10085 41.9077 7.67045 41.6733C7.24006 41.4347 6.66903 41.3153 5.95739 41.3153H3.17045V53H1.58523ZM12.8065 53V43.1818H14.2638V44.6648H14.3661C14.5451 44.179 14.869 43.7848 15.3377 43.4822C15.8065 43.1797 16.3349 43.0284 16.9229 43.0284C17.0337 43.0284 17.1722 43.0305 17.3384 43.0348C17.5046 43.0391 17.6303 43.0455 17.7156 43.054V44.5881C17.6644 44.5753 17.5472 44.5561 17.364 44.5305C17.185 44.5007 16.9954 44.4858 16.7951 44.4858C16.3178 44.4858 15.8917 44.5859 15.5167 44.7862C15.146 44.9822 14.8519 45.255 14.6346 45.6044C14.4215 45.9496 14.315 46.3437 14.315 46.7869V53H12.8065ZM23.1935 53.2045C22.3072 53.2045 21.5295 52.9936 20.8604 52.5717C20.1957 52.1499 19.6758 51.5597 19.3008 50.8011C18.93 50.0426 18.7447 49.1562 18.7447 48.142C18.7447 47.1193 18.93 46.2266 19.3008 45.4638C19.6758 44.701 20.1957 44.1087 20.8604 43.6868C21.5295 43.2649 22.3072 43.054 23.1935 43.054C24.0799 43.054 24.8555 43.2649 25.5202 43.6868C26.1893 44.1087 26.7092 44.701 27.0799 45.4638C27.4549 46.2266 27.6424 47.1193 27.6424 48.142C27.6424 49.1562 27.4549 50.0426 27.0799 50.8011C26.7092 51.5597 26.1893 52.1499 25.5202 52.5717C24.8555 52.9936 24.0799 53.2045 23.1935 53.2045ZM23.1935 51.8494C23.8668 51.8494 24.4208 51.6768 24.8555 51.3317C25.2901 50.9865 25.6119 50.5327 25.8207 49.9702C26.0295 49.4077 26.1339 48.7983 26.1339 48.142C26.1339 47.4858 26.0295 46.8743 25.8207 46.3075C25.6119 45.7408 25.2901 45.2827 24.8555 44.9332C24.4208 44.5838 23.8668 44.4091 23.1935 44.4091C22.5202 44.4091 21.9663 44.5838 21.5316 44.9332C21.0969 45.2827 20.7752 45.7408 20.5664 46.3075C20.3576 46.8743 20.2532 47.4858 20.2532 48.142C20.2532 48.7983 20.3576 49.4077 20.5664 49.9702C20.7752 50.5327 21.0969 50.9865 21.5316 51.3317C21.9663 51.6768 22.5202 51.8494 23.1935 51.8494ZM29.9451 43.1818H31.4537V53.7159C31.4537 54.321 31.3493 54.8452 31.1404 55.2884C30.9359 55.7315 30.6248 56.0746 30.2072 56.3175C29.7939 56.5604 29.2718 56.6818 28.6412 56.6818C28.59 56.6818 28.5389 56.6818 28.4877 56.6818C28.4366 56.6818 28.3855 56.6818 28.3343 56.6818V55.2756C28.3855 55.2756 28.4324 55.2756 28.475 55.2756C28.5176 55.2756 28.5645 55.2756 28.6156 55.2756C29.0758 55.2756 29.4125 55.1392 29.6255 54.8665C29.8386 54.598 29.9451 54.2145 29.9451 53.7159V43.1818ZM30.6866 41.5455C30.3926 41.5455 30.139 41.4453 29.926 41.245C29.7172 41.0447 29.6127 40.804 29.6127 40.5227C29.6127 40.2415 29.7172 40.0007 29.926 39.8004C30.139 39.6001 30.3926 39.5 30.6866 39.5C30.9806 39.5 31.2321 39.6001 31.4409 39.8004C31.6539 40.0007 31.7605 40.2415 31.7605 40.5227C31.7605 40.804 31.6539 41.0447 31.4409 41.245C31.2321 41.4453 30.9806 41.5455 30.6866 41.5455ZM38.3331 53.2045C37.3871 53.2045 36.571 52.9957 35.8849 52.5781C35.2031 52.1562 34.6768 51.5682 34.3061 50.8139C33.9396 50.0554 33.7564 49.1733 33.7564 48.1676C33.7564 47.1619 33.9396 46.2756 34.3061 45.5085C34.6768 44.7372 35.1925 44.1364 35.853 43.706C36.5178 43.2713 37.2933 43.054 38.1797 43.054C38.6911 43.054 39.196 43.1392 39.6946 43.3097C40.1932 43.4801 40.647 43.7571 41.0561 44.1406C41.4652 44.5199 41.7912 45.0227 42.0341 45.6491C42.277 46.2756 42.3984 47.0469 42.3984 47.9631V48.6023H34.8303V47.2983H40.8643C40.8643 46.7443 40.7536 46.25 40.532 45.8153C40.3146 45.3807 40.0036 45.0376 39.5987 44.7862C39.1982 44.5348 38.7251 44.4091 38.1797 44.4091C37.5788 44.4091 37.0589 44.5582 36.62 44.8565C36.1854 45.1506 35.8509 45.5341 35.6165 46.0071C35.3821 46.4801 35.2649 46.9872 35.2649 47.5284V48.3977C35.2649 49.1392 35.3928 49.7678 35.6484 50.2834C35.9084 50.7947 36.2685 51.1847 36.7287 51.4531C37.1889 51.7173 37.7237 51.8494 38.3331 51.8494C38.7294 51.8494 39.0874 51.794 39.407 51.6832C39.7308 51.5682 40.0099 51.3977 40.2443 51.1719C40.4787 50.9418 40.6598 50.6562 40.7876 50.3153L42.245 50.7244C42.0916 51.2188 41.8338 51.6534 41.4716 52.0284C41.1094 52.3991 40.6619 52.6889 40.1293 52.8977C39.5966 53.1023 38.9979 53.2045 38.3331 53.2045ZM48.6818 53.2045C47.7614 53.2045 46.9688 52.9872 46.304 52.5526C45.6392 52.1179 45.1278 51.5192 44.7699 50.7564C44.4119 49.9936 44.233 49.1222 44.233 48.142C44.233 47.1449 44.4162 46.2649 44.7827 45.5021C45.1534 44.7351 45.669 44.1364 46.3295 43.706C46.9943 43.2713 47.7699 43.054 48.6562 43.054C49.3466 43.054 49.9688 43.1818 50.5227 43.4375C51.0767 43.6932 51.5305 44.0511 51.8842 44.5114C52.2379 44.9716 52.4574 45.5085 52.5426 46.1222H51.0341C50.919 45.6747 50.6634 45.2784 50.267 44.9332C49.875 44.5838 49.3466 44.4091 48.6818 44.4091C48.0938 44.4091 47.5781 44.5625 47.1349 44.8693C46.696 45.1719 46.353 45.6001 46.1058 46.1541C45.8629 46.7038 45.7415 47.3494 45.7415 48.0909C45.7415 48.8494 45.8608 49.5099 46.0994 50.0724C46.3423 50.6349 46.6832 51.0717 47.1222 51.3828C47.5653 51.6939 48.0852 51.8494 48.6818 51.8494C49.0739 51.8494 49.4297 51.7812 49.7493 51.6449C50.0689 51.5085 50.3395 51.3125 50.5611 51.0568C50.7827 50.8011 50.9403 50.4943 51.0341 50.1364H52.5426C52.4574 50.7159 52.2464 51.2379 51.9098 51.7024C51.5774 52.1626 51.1364 52.5291 50.5866 52.8018C50.0412 53.0703 49.4063 53.2045 48.6818 53.2045ZM59.0178 43.1818V44.4602H53.9297V43.1818H59.0178ZM55.4126 40.8295H56.9212V50.1875C56.9212 50.6136 56.983 50.9332 57.1065 51.1463C57.2344 51.3551 57.3963 51.4957 57.5923 51.5682C57.7926 51.6364 58.0036 51.6705 58.2251 51.6705C58.3913 51.6705 58.5277 51.6619 58.6342 51.6449C58.7408 51.6236 58.826 51.6065 58.8899 51.5938L59.1967 52.9489C59.0945 52.9872 58.9517 53.0256 58.7685 53.0639C58.5852 53.1065 58.353 53.1278 58.0717 53.1278C57.6456 53.1278 57.228 53.0362 56.8189 52.853C56.4141 52.6697 56.0774 52.3906 55.8089 52.0156C55.5447 51.6406 55.4126 51.1676 55.4126 50.5966V40.8295ZM66.554 39.9091H68.446L72.8949 50.7756H73.0483L77.4972 39.9091H79.3892V53H77.9062V43.054H77.7784L73.6875 53H72.2557L68.1648 43.054H68.0369V53H66.554V39.9091ZM85.2523 53.2301C84.6301 53.2301 84.0655 53.1129 83.5584 52.8786C83.0513 52.6399 82.6486 52.2969 82.3503 51.8494C82.052 51.3977 81.9029 50.8523 81.9029 50.2131C81.9029 49.6506 82.0137 49.1946 82.2353 48.8452C82.4569 48.4915 82.753 48.2145 83.1238 48.0142C83.4945 47.8139 83.9036 47.6648 84.351 47.5668C84.8027 47.4645 85.2566 47.3835 85.7125 47.3239C86.3091 47.2472 86.7928 47.1896 87.1635 47.1513C87.5385 47.1087 87.8113 47.0384 87.9817 46.9403C88.1564 46.8423 88.2438 46.6719 88.2438 46.429V46.3778C88.2438 45.7472 88.0712 45.2571 87.726 44.9077C87.3851 44.5582 86.8674 44.3835 86.1728 44.3835C85.4526 44.3835 84.888 44.5412 84.4789 44.8565C84.0698 45.1719 83.7821 45.5085 83.6159 45.8665L82.1841 45.3551C82.4398 44.7585 82.7807 44.294 83.2069 43.9616C83.6373 43.625 84.106 43.3906 84.6131 43.2585C85.1245 43.1222 85.6273 43.054 86.1216 43.054C86.437 43.054 86.7992 43.0923 87.2083 43.169C87.6216 43.2415 88.0201 43.3928 88.4036 43.6229C88.7914 43.853 89.1131 44.2003 89.3688 44.6648C89.6245 45.1293 89.7523 45.7514 89.7523 46.5312V53H88.2438V51.6705H88.1671C88.0648 51.8835 87.8944 52.1115 87.6557 52.3544C87.4171 52.5973 87.0996 52.804 86.7033 52.9744C86.307 53.1449 85.8233 53.2301 85.2523 53.2301ZM85.4824 51.875C86.079 51.875 86.5819 51.7578 86.9909 51.5234C87.4043 51.2891 87.7154 50.9865 87.9242 50.6158C88.1373 50.245 88.2438 49.8551 88.2438 49.446V48.0653C88.1799 48.142 88.0392 48.2124 87.8219 48.2763C87.6088 48.3359 87.3617 48.3892 87.0804 48.4361C86.8034 48.4787 86.5328 48.517 86.2686 48.5511C86.0087 48.581 85.7978 48.6065 85.6358 48.6278C85.2438 48.679 84.8773 48.7621 84.5364 48.8771C84.1998 48.9879 83.927 49.1562 83.7182 49.3821C83.5137 49.6037 83.4114 49.9062 83.4114 50.2898C83.4114 50.8139 83.6053 51.2102 83.9931 51.4787C84.3851 51.7429 84.8816 51.875 85.4824 51.875ZM94.0142 47.0938V53H92.5057V43.1818H93.9631V44.7159H94.0909C94.321 44.2173 94.6705 43.8168 95.1392 43.5142C95.608 43.2074 96.2131 43.054 96.9545 43.054C97.6193 43.054 98.201 43.1903 98.6996 43.4631C99.1982 43.7315 99.5859 44.1406 99.8629 44.6903C100.14 45.2358 100.278 45.9261 100.278 46.7614V53H98.7699V46.8636C98.7699 46.0923 98.5696 45.4915 98.169 45.0611C97.7685 44.6264 97.2188 44.4091 96.5199 44.4091C96.0384 44.4091 95.608 44.5135 95.2287 44.7223C94.8537 44.9311 94.5575 45.2358 94.3402 45.6364C94.1229 46.0369 94.0142 46.5227 94.0142 47.0938ZM105.924 53.2301C105.302 53.2301 104.737 53.1129 104.23 52.8786C103.723 52.6399 103.32 52.2969 103.022 51.8494C102.724 51.3977 102.575 50.8523 102.575 50.2131C102.575 49.6506 102.686 49.1946 102.907 48.8452C103.129 48.4915 103.425 48.2145 103.796 48.0142C104.166 47.8139 104.575 47.6648 105.023 47.5668C105.475 47.4645 105.928 47.3835 106.384 47.3239C106.981 47.2472 107.465 47.1896 107.835 47.1513C108.21 47.1087 108.483 47.0384 108.654 46.9403C108.828 46.8423 108.916 46.6719 108.916 46.429V46.3778C108.916 45.7472 108.743 45.2571 108.398 44.9077C108.057 44.5582 107.539 44.3835 106.845 44.3835C106.124 44.3835 105.56 44.5412 105.151 44.8565C104.742 45.1719 104.454 45.5085 104.288 45.8665L102.856 45.3551C103.112 44.7585 103.453 44.294 103.879 43.9616C104.309 43.625 104.778 43.3906 105.285 43.2585C105.796 43.1222 106.299 43.054 106.794 43.054C107.109 43.054 107.471 43.0923 107.88 43.169C108.294 43.2415 108.692 43.3928 109.075 43.6229C109.463 43.853 109.785 44.2003 110.041 44.6648C110.296 45.1293 110.424 45.7514 110.424 46.5312V53H108.916V51.6705H108.839C108.737 51.8835 108.566 52.1115 108.328 52.3544C108.089 52.5973 107.771 52.804 107.375 52.9744C106.979 53.1449 106.495 53.2301 105.924 53.2301ZM106.154 51.875C106.751 51.875 107.254 51.7578 107.663 51.5234C108.076 51.2891 108.387 50.9865 108.596 50.6158C108.809 50.245 108.916 49.8551 108.916 49.446V48.0653C108.852 48.142 108.711 48.2124 108.494 48.2763C108.281 48.3359 108.034 48.3892 107.752 48.4361C107.475 48.4787 107.205 48.517 106.941 48.5511C106.681 48.581 106.47 48.6065 106.308 48.6278C105.916 48.679 105.549 48.7621 105.208 48.8771C104.872 48.9879 104.599 49.1562 104.39 49.3821C104.186 49.6037 104.083 49.9062 104.083 50.2898C104.083 50.8139 104.277 51.2102 104.665 51.4787C105.057 51.7429 105.553 51.875 106.154 51.875ZM117.141 56.8864C116.412 56.8864 115.786 56.7926 115.261 56.6051C114.737 56.4219 114.3 56.179 113.951 55.8764C113.606 55.5781 113.331 55.2585 113.126 54.9176L114.328 54.0739C114.464 54.2528 114.637 54.4574 114.846 54.6875C115.055 54.9219 115.34 55.1243 115.702 55.2947C116.069 55.4695 116.548 55.5568 117.141 55.5568C117.933 55.5568 118.587 55.3651 119.103 54.9815C119.619 54.598 119.876 53.9972 119.876 53.179V51.1847H119.749C119.638 51.3636 119.48 51.5852 119.276 51.8494C119.075 52.1094 118.786 52.3416 118.406 52.5462C118.031 52.7464 117.524 52.8466 116.885 52.8466C116.092 52.8466 115.381 52.6591 114.75 52.2841C114.124 51.9091 113.627 51.3636 113.261 50.6477C112.898 49.9318 112.717 49.0625 112.717 48.0398C112.717 47.0341 112.894 46.1584 113.248 45.4126C113.602 44.6626 114.094 44.0831 114.724 43.674C115.355 43.2607 116.084 43.054 116.911 43.054C117.55 43.054 118.057 43.1605 118.432 43.3736C118.811 43.5824 119.101 43.821 119.301 44.0895C119.506 44.3537 119.663 44.571 119.774 44.7415H119.928V43.1818H121.385V53.2812C121.385 54.125 121.193 54.8111 120.81 55.3395C120.43 55.8722 119.919 56.2621 119.276 56.5092C118.636 56.7607 117.925 56.8864 117.141 56.8864ZM117.089 51.4915C117.695 51.4915 118.206 51.353 118.624 51.076C119.041 50.799 119.359 50.4006 119.576 49.8807C119.793 49.3608 119.902 48.7386 119.902 48.0142C119.902 47.3068 119.795 46.6825 119.582 46.1413C119.369 45.6001 119.054 45.1761 118.636 44.8693C118.219 44.5625 117.703 44.4091 117.089 44.4091C116.45 44.4091 115.918 44.571 115.491 44.8949C115.07 45.2187 114.752 45.6534 114.539 46.1989C114.33 46.7443 114.226 47.3494 114.226 48.0142C114.226 48.696 114.332 49.299 114.545 49.8232C114.763 50.343 115.082 50.7521 115.504 51.0504C115.93 51.3445 116.459 51.4915 117.089 51.4915ZM128.263 53.2045C127.317 53.2045 126.501 52.9957 125.815 52.5781C125.133 52.1562 124.607 51.5682 124.236 50.8139C123.869 50.0554 123.686 49.1733 123.686 48.1676C123.686 47.1619 123.869 46.2756 124.236 45.5085C124.607 44.7372 125.122 44.1364 125.783 43.706C126.447 43.2713 127.223 43.054 128.109 43.054C128.621 43.054 129.126 43.1392 129.624 43.3097C130.123 43.4801 130.577 43.7571 130.986 44.1406C131.395 44.5199 131.721 45.0227 131.964 45.6491C132.207 46.2756 132.328 47.0469 132.328 47.9631V48.6023H124.76V47.2983H130.794C130.794 46.7443 130.683 46.25 130.462 45.8153C130.244 45.3807 129.933 45.0376 129.528 44.7862C129.128 44.5348 128.655 44.4091 128.109 44.4091C127.509 44.4091 126.989 44.5582 126.55 44.8565C126.115 45.1506 125.781 45.5341 125.546 46.0071C125.312 46.4801 125.195 46.9872 125.195 47.5284V48.3977C125.195 49.1392 125.322 49.7678 125.578 50.2834C125.838 50.7947 126.198 51.1847 126.658 51.4531C127.119 51.7173 127.653 51.8494 128.263 51.8494C128.659 51.8494 129.017 51.794 129.337 51.6832C129.661 51.5682 129.94 51.3977 130.174 51.1719C130.408 50.9418 130.589 50.6562 130.717 50.3153L132.175 50.7244C132.021 51.2188 131.763 51.6534 131.401 52.0284C131.039 52.3991 130.592 52.6889 130.059 52.8977C129.526 53.1023 128.928 53.2045 128.263 53.2045ZM134.623 53V43.1818H136.08V44.6648H136.183C136.362 44.179 136.685 43.7848 137.154 43.4822C137.623 43.1797 138.151 43.0284 138.739 43.0284C138.85 43.0284 138.989 43.0305 139.155 43.0348C139.321 43.0391 139.447 43.0455 139.532 43.054V44.5881C139.481 44.5753 139.364 44.5561 139.18 44.5305C139.001 44.5007 138.812 44.4858 138.612 44.4858C138.134 44.4858 137.708 44.5859 137.333 44.7862C136.962 44.9822 136.668 45.255 136.451 45.6044C136.238 45.9496 136.131 46.3437 136.131 46.7869V53H134.623ZM142.445 51.2102L142.343 51.9006C142.27 52.3864 142.16 52.9062 142.01 53.4602C141.866 54.0142 141.714 54.5362 141.557 55.0263C141.399 55.5163 141.269 55.9063 141.167 56.196H140.016C140.072 55.9233 140.144 55.5632 140.233 55.1158C140.323 54.6683 140.412 54.1676 140.502 53.6136C140.596 53.0639 140.672 52.5014 140.732 51.9261L140.809 51.2102H142.445ZM157.666 43.1818C157.589 42.5341 157.278 42.0312 156.733 41.6733C156.188 41.3153 155.518 41.1364 154.726 41.1364C154.146 41.1364 153.639 41.2301 153.205 41.4176C152.774 41.6051 152.438 41.8629 152.195 42.1911C151.956 42.5192 151.837 42.892 151.837 43.3097C151.837 43.6591 151.92 43.9595 152.086 44.2109C152.256 44.4581 152.474 44.6648 152.738 44.831C153.002 44.9929 153.279 45.1271 153.569 45.2337C153.859 45.3359 154.125 45.419 154.368 45.483L155.697 45.8409C156.038 45.9304 156.418 46.054 156.835 46.2116C157.257 46.3693 157.66 46.5845 158.043 46.8572C158.431 47.1257 158.751 47.4709 159.002 47.8928C159.254 48.3146 159.379 48.8324 159.379 49.446C159.379 50.1534 159.194 50.7926 158.823 51.3636C158.457 51.9347 157.92 52.3885 157.212 52.7251C156.509 53.0618 155.655 53.2301 154.649 53.2301C153.712 53.2301 152.9 53.0788 152.214 52.7763C151.532 52.4737 150.995 52.0518 150.603 51.5107C150.215 50.9695 149.996 50.3409 149.945 49.625H151.581C151.624 50.1193 151.79 50.5284 152.08 50.8523C152.374 51.1719 152.744 51.4105 153.192 51.5682C153.643 51.7216 154.129 51.7983 154.649 51.7983C155.254 51.7983 155.798 51.7003 156.279 51.5043C156.761 51.304 157.142 51.027 157.423 50.6733C157.705 50.3153 157.845 49.8977 157.845 49.4205C157.845 48.9858 157.724 48.6321 157.481 48.3594C157.238 48.0866 156.918 47.8651 156.522 47.6946C156.126 47.5241 155.697 47.375 155.237 47.2472L153.626 46.7869C152.604 46.4929 151.794 46.0732 151.197 45.5277C150.601 44.9822 150.303 44.2685 150.303 43.3864C150.303 42.6534 150.501 42.0142 150.897 41.4688C151.298 40.919 151.835 40.4929 152.508 40.1903C153.185 39.8835 153.942 39.7301 154.777 39.7301C155.621 39.7301 156.371 39.8814 157.027 40.1839C157.683 40.4822 158.203 40.8913 158.587 41.4112C158.974 41.9311 159.179 42.5213 159.2 43.1818H157.666ZM163.29 47.0938V53H161.781V39.9091H163.29V44.7159H163.417C163.648 44.2088 163.993 43.8061 164.453 43.5078C164.917 43.2053 165.535 43.054 166.307 43.054C166.976 43.054 167.562 43.1882 168.064 43.4567C168.567 43.7209 168.957 44.1278 169.234 44.6776C169.515 45.223 169.656 45.9176 169.656 46.7614V53H168.148V46.8636C168.148 46.0838 167.945 45.4808 167.54 45.0547C167.14 44.6243 166.584 44.4091 165.872 44.4091C165.378 44.4091 164.934 44.5135 164.542 44.7223C164.155 44.9311 163.848 45.2358 163.622 45.6364C163.4 46.0369 163.29 46.5227 163.29 47.0938ZM176.404 53.2045C175.518 53.2045 174.74 52.9936 174.071 52.5717C173.407 52.1499 172.887 51.5597 172.512 50.8011C172.141 50.0426 171.956 49.1562 171.956 48.142C171.956 47.1193 172.141 46.2266 172.512 45.4638C172.887 44.701 173.407 44.1087 174.071 43.6868C174.74 43.2649 175.518 43.054 176.404 43.054C177.291 43.054 178.066 43.2649 178.731 43.6868C179.4 44.1087 179.92 44.701 180.291 45.4638C180.666 46.2266 180.853 47.1193 180.853 48.142C180.853 49.1562 180.666 50.0426 180.291 50.8011C179.92 51.5597 179.4 52.1499 178.731 52.5717C178.066 52.9936 177.291 53.2045 176.404 53.2045ZM176.404 51.8494C177.078 51.8494 177.632 51.6768 178.066 51.3317C178.501 50.9865 178.823 50.5327 179.032 49.9702C179.24 49.4077 179.345 48.7983 179.345 48.142C179.345 47.4858 179.24 46.8743 179.032 46.3075C178.823 45.7408 178.501 45.2827 178.066 44.9332C177.632 44.5838 177.078 44.4091 176.404 44.4091C175.731 44.4091 175.177 44.5838 174.743 44.9332C174.308 45.2827 173.986 45.7408 173.777 46.3075C173.569 46.8743 173.464 47.4858 173.464 48.142C173.464 48.7983 173.569 49.4077 173.777 49.9702C173.986 50.5327 174.308 50.9865 174.743 51.3317C175.177 51.6768 175.731 51.8494 176.404 51.8494ZM183.156 56.6818V43.1818H184.613V44.7415H184.792C184.903 44.571 185.057 44.3537 185.253 44.0895C185.453 43.821 185.738 43.5824 186.109 43.3736C186.484 43.1605 186.991 43.054 187.631 43.054C188.457 43.054 189.186 43.2607 189.817 43.674C190.447 44.0874 190.939 44.6733 191.293 45.4318C191.647 46.1903 191.824 47.0852 191.824 48.1165C191.824 49.1562 191.647 50.0575 191.293 50.8203C190.939 51.5788 190.449 52.1669 189.823 52.5845C189.197 52.9979 188.474 53.2045 187.656 53.2045C187.025 53.2045 186.52 53.1001 186.141 52.8913C185.762 52.6783 185.47 52.4375 185.265 52.169C185.061 51.8963 184.903 51.6705 184.792 51.4915H184.665V56.6818H183.156ZM184.639 48.0909C184.639 48.8324 184.748 49.4865 184.965 50.0533C185.182 50.6158 185.5 51.0568 185.917 51.3764C186.335 51.6918 186.846 51.8494 187.452 51.8494C188.082 51.8494 188.608 51.6832 189.03 51.3509C189.456 51.0142 189.776 50.5625 189.989 49.9957C190.206 49.4247 190.315 48.7898 190.315 48.0909C190.315 47.4006 190.209 46.7784 189.996 46.2244C189.787 45.6662 189.469 45.2251 189.043 44.9013C188.621 44.5732 188.091 44.4091 187.452 44.4091C186.838 44.4091 186.322 44.5646 185.905 44.8757C185.487 45.1825 185.172 45.6129 184.959 46.1669C184.746 46.7166 184.639 47.358 184.639 48.0909ZM194.125 53V43.1818H195.633V53H194.125ZM194.892 41.5455C194.598 41.5455 194.344 41.4453 194.131 41.245C193.922 41.0447 193.818 40.804 193.818 40.5227C193.818 40.2415 193.922 40.0007 194.131 39.8004C194.344 39.6001 194.598 39.5 194.892 39.5C195.186 39.5 195.437 39.6001 195.646 39.8004C195.859 40.0007 195.966 40.2415 195.966 40.5227C195.966 40.804 195.859 41.0447 195.646 41.245C195.437 41.4453 195.186 41.5455 194.892 41.5455ZM202.768 43.1818V44.4602H197.476V43.1818H202.768ZM199.061 53V41.8267C199.061 41.2642 199.193 40.7955 199.457 40.4205C199.722 40.0455 200.065 39.7642 200.487 39.5767C200.908 39.3892 201.354 39.2955 201.822 39.2955C202.193 39.2955 202.496 39.3253 202.73 39.3849C202.964 39.4446 203.139 39.5 203.254 39.5511L202.82 40.8551C202.743 40.8295 202.636 40.7976 202.5 40.7592C202.368 40.7209 202.193 40.7017 201.976 40.7017C201.477 40.7017 201.117 40.8274 200.896 41.0788C200.678 41.3303 200.57 41.6989 200.57 42.1847V53H199.061ZM205.854 56.6818C205.599 56.6818 205.371 56.6605 205.17 56.6179C204.97 56.5795 204.831 56.5412 204.755 56.5028L205.138 55.1733C205.505 55.267 205.829 55.3011 206.11 55.2756C206.391 55.25 206.64 55.1243 206.858 54.8984C207.079 54.6768 207.282 54.3168 207.465 53.8182L207.746 53.0511L204.116 43.1818H205.752L208.462 51.0057H208.564L211.275 43.1818H212.911L208.743 54.4318C208.556 54.9389 208.324 55.3587 208.047 55.6911C207.77 56.0277 207.448 56.277 207.081 56.4389C206.719 56.6009 206.31 56.6818 205.854 56.6818Z" fill="#475467"/>
</svg>
